<svg width="31" height="22" viewBox="0 0 31 22" fill="none" xmlns="http://www.w3.org/2000/svg">
<path d="M23.5002 11.0001C23.5002 13.1218 22.6573 15.1566 21.157 16.6569C19.6567 18.1572 17.6219 19.0001 15.5002 19.0001C14.1668 19.0001 12.8735 18.6667 11.7668 18.0667L9.82016 20.0134C11.4602 21.0534 13.4068 21.6667 15.5002 21.6667C18.3291 21.6667 21.0422 20.5429 23.0426 18.5426C25.043 16.5422 26.1668 13.8291 26.1668 11.0001L30.1668 11.0001L24.8335 5.66675L19.5002 11.0001M4.8335 11.0001L0.833496 11.0001L6.16683 16.3334L11.5002 11.0001L7.50016 11.0001C7.50016 8.87835 8.34302 6.84352 9.84331 5.34323C11.3436 3.84294 13.3784 3.00008 15.5002 3.00008C16.8335 3.00008 18.1268 3.33342 19.2335 3.93342L21.1802 1.98675C19.5402 0.946748 17.5935 0.333415 15.5002 0.333415C12.6712 0.333415 9.95808 1.45722 7.95769 3.45761C5.9573 5.458 4.8335 8.17111 4.8335 11.0001Z" fill="#3182CE"/>
</svg>
